<svg xmlns="http://www.w3.org/2000/svg" xmlns:xlink="http://www.w3.org/1999/xlink" width="1350" zoomAndPan="magnify" viewBox="0 0 1011.5 748.999995" height="1000" preserveAspectRatio="xMidYMid meet" version="1.0"><defs><filter x="0%" y="0%" width="100%" height="100%" id="aacccc996d"><feColorMatrix values="0 0 0 0 1 0 0 0 0 1 0 0 0 0 1 0 0 0 1 0" color-interpolation-filters="sRGB"/></filter><clipPath id="a123e2339b"><path d="M 0 0.183594 L 1012 0.183594 L 1012 749.8125 L 0 749.8125 Z M 0 0.183594 " clip-rule="nonzero"/></clipPath><clipPath id="157949adb5"><path d="M 446 0.183594 L 1012 0.183594 L 1012 749.8125 L 446 749.8125 Z M 446 0.183594 " clip-rule="nonzero"/></clipPath><mask id="e84fb437ad"><g filter="url(#aacccc996d)"><rect x="-101.25" width="1215" fill="#000000" y="-74.999999" height="899.999994" fill-opacity="0.2"/></g></mask><clipPath id="7fe9a1e27e"><path d="M 69 500 L 260 500 L 260 731 L 69 731 Z M 69 500 " clip-rule="nonzero"/></clipPath><clipPath id="ad783deafb"><path d="M 1.265625 584.832031 L 331.808594 -0.734375 L 656.253906 182.410156 L 325.707031 767.976562 Z M 1.265625 584.832031 " clip-rule="nonzero"/></clipPath><clipPath id="bc225c267d"><path d="M 1.265625 584.832031 L 331.808594 -0.734375 L 656.253906 182.410156 L 325.707031 767.976562 Z M 1.265625 584.832031 " clip-rule="nonzero"/></clipPath><clipPath id="df7ac79464"><path d="M 112 322 L 360 322 L 360 622 L 112 622 Z M 112 322 " clip-rule="nonzero"/></clipPath><clipPath id="4aecc9fcd9"><path d="M 1.265625 584.832031 L 331.808594 -0.734375 L 656.253906 182.410156 L 325.707031 767.976562 Z M 1.265625 584.832031 " clip-rule="nonzero"/></clipPath><clipPath id="4e14147cd3"><path d="M 1.265625 584.832031 L 331.808594 -0.734375 L 656.253906 182.410156 L 325.707031 767.976562 Z M 1.265625 584.832031 " clip-rule="nonzero"/></clipPath><clipPath id="4483a1c29d"><path d="M 170 87 L 491 87 L 491 477 L 170 477 Z M 170 87 " clip-rule="nonzero"/></clipPath><clipPath id="9dd1baf0d8"><path d="M 1.265625 584.832031 L 331.808594 -0.734375 L 656.253906 182.410156 L 325.707031 767.976562 Z M 1.265625 584.832031 " clip-rule="nonzero"/></clipPath><clipPath id="8bcac142dc"><path d="M 1.265625 584.832031 L 331.808594 -0.734375 L 656.253906 182.410156 L 325.707031 767.976562 Z M 1.265625 584.832031 " clip-rule="nonzero"/></clipPath><clipPath id="c7b67222f0"><rect x="0" width="566" y="0" height="750"/></clipPath><clipPath id="6792c35821"><path d="M 0 0.183594 L 293 0.183594 L 293 334 L 0 334 Z M 0 0.183594 " clip-rule="nonzero"/></clipPath><mask id="ff208debb1"><g filter="url(#aacccc996d)"><rect x="-101.25" width="1215" fill="#000000" y="-74.999999" height="899.999994" fill-opacity="0.2"/></g></mask><clipPath id="06ecd0127f"><path d="M 0 0.183594 L 171 0.183594 L 171 176 L 0 176 Z M 0 0.183594 " clip-rule="nonzero"/></clipPath><clipPath id="fe8395978e"><path d="M 70.304688 -152.007812 L 290.589844 29.777344 L 41.050781 332.164062 L -179.234375 150.378906 Z M 70.304688 -152.007812 " clip-rule="nonzero"/></clipPath><clipPath id="e244247cc8"><path d="M -255.359375 -420.753906 L 290.445312 29.65625 L 40.90625 332.042969 L -504.898438 -118.367188 Z M -255.359375 -420.753906 " clip-rule="nonzero"/></clipPath><clipPath id="9fe554749d"><rect x="0" width="293" y="0" height="334"/></clipPath></defs><g clip-path="url(#a123e2339b)"><path fill="#091d33" d="M 0 0.183594 L 1012 0.183594 L 1012 749.816406 L 0 749.816406 Z M 0 0.183594 " fill-opacity="1" fill-rule="nonzero"/></g><g clip-path="url(#157949adb5)"><g mask="url(#e84fb437ad)"><g transform="matrix(1, 0, 0, 1, 446, -0.000000000000089123)"><g clip-path="url(#c7b67222f0)"><g clip-path="url(#7fe9a1e27e)"><g clip-path="url(#ad783deafb)"><g clip-path="url(#bc225c267d)"><path fill="#4f90f5" d="M 250.050781 504.953125 C 242.480469 509.53125 234.886719 514.074219 227.332031 518.6875 L 204.65625 532.503906 L 182.039062 546.40625 L 170.75 553.394531 L 159.472656 560.402344 L 148.207031 567.4375 L 136.964844 574.5 L 125.738281 581.589844 L 114.53125 588.71875 C 107.066406 593.476562 99.609375 598.261719 92.175781 603.070312 C 88.457031 605.476562 84.746094 607.886719 81.042969 610.328125 C 77.339844 612.75 73.628906 615.175781 69.949219 617.636719 C 73.878906 615.601562 77.792969 613.523438 81.707031 611.453125 C 85.628906 609.390625 89.539062 607.300781 93.441406 605.207031 C 101.246094 601.027344 109.035156 596.808594 116.808594 592.570312 L 128.457031 586.199219 L 140.089844 579.796875 L 151.710938 573.367188 L 163.304688 566.898438 L 174.894531 560.417969 L 186.464844 553.902344 L 209.566406 540.820312 L 232.613281 527.636719 C 237.542969 524.824219 242.457031 521.992188 247.371094 519.148438 L 247.375 523.019531 L 247.429688 536.3125 L 247.476562 549.613281 L 247.578125 562.90625 L 247.800781 589.5 L 248.113281 616.089844 L 248.511719 642.679688 L 248.742188 655.976562 L 248.996094 669.269531 L 249.261719 682.5625 L 249.566406 695.859375 L 249.875 709.152344 L 250.019531 714.453125 L 249.695312 714.277344 L 242.183594 710.238281 L 227.164062 702.164062 L 212.105469 694.144531 L 198.597656 686.996094 L 198.527344 678.875 L 198.425781 668.808594 L 198.148438 648.671875 L 197.964844 638.605469 L 197.757812 628.539062 L 197.5 618.464844 C 197.414062 615.109375 197.328125 611.753906 197.207031 608.394531 C 196.953125 611.746094 196.714844 615.09375 196.488281 618.445312 L 195.808594 628.496094 L 195.171875 638.542969 L 194.5625 648.597656 L 193.433594 668.707031 L 192.894531 678.753906 L 192.300781 690.578125 L 193.972656 691.585938 L 208.589844 700.371094 L 223.238281 709.121094 L 237.910156 717.808594 L 245.253906 722.140625 L 252.605469 726.464844 L 259.496094 730.507812 L 259.5625 722.355469 L 259.660156 709.058594 L 259.714844 695.761719 L 259.765625 682.464844 L 259.769531 669.167969 L 259.765625 655.867188 L 259.734375 642.570312 L 259.621094 615.980469 L 259.414062 589.386719 L 259.121094 562.796875 L 258.960938 549.496094 L 258.554688 522.910156 L 258.308594 509.613281 L 258.136719 500.058594 L 250.050781 504.953125 " fill-opacity="1" fill-rule="nonzero"/></g></g></g><g clip-path="url(#df7ac79464)"><g clip-path="url(#4aecc9fcd9)"><g clip-path="url(#4e14147cd3)"><path fill="#346dbf" d="M 346.417969 328.867188 C 336.582031 334.820312 326.722656 340.71875 316.910156 346.707031 L 287.460938 364.652344 L 258.085938 382.710938 L 243.425781 391.78125 L 228.785156 400.886719 L 214.148438 410.015625 L 199.554688 419.191406 L 184.976562 428.402344 L 170.421875 437.652344 C 160.71875 443.835938 151.039062 450.042969 141.386719 456.296875 C 136.5625 459.425781 131.730469 462.554688 126.929688 465.71875 C 122.117188 468.875 117.304688 472.015625 112.519531 475.210938 C 117.628906 472.566406 122.703125 469.867188 127.792969 467.183594 C 132.886719 464.503906 137.960938 461.789062 143.023438 459.074219 C 153.160156 453.644531 163.277344 448.167969 173.378906 442.664062 L 188.507812 434.382812 L 203.617188 426.066406 L 218.707031 417.71875 L 233.765625 409.324219 L 248.8125 400.902344 L 263.839844 392.445312 L 293.839844 375.445312 L 323.773438 358.339844 C 330.175781 354.683594 336.558594 350.992188 342.9375 347.304688 L 342.941406 352.328125 L 343.011719 369.601562 L 343.082031 386.867188 L 343.203125 404.136719 L 343.492188 438.671875 L 343.902344 473.207031 L 344.414062 507.742188 L 344.710938 525.003906 L 345.042969 542.269531 L 345.390625 559.535156 L 345.789062 576.804688 L 346.1875 594.066406 L 346.375 600.953125 L 345.953125 600.722656 L 336.207031 595.46875 L 316.691406 584.988281 L 297.144531 574.574219 L 279.597656 565.289062 L 279.511719 554.75 L 279.371094 541.675781 L 279.011719 515.519531 L 278.777344 502.445312 L 278.503906 489.371094 L 278.171875 476.289062 C 278.0625 471.929688 277.941406 467.574219 277.789062 463.214844 C 277.453125 467.566406 277.152344 471.914062 276.859375 476.261719 L 275.964844 489.316406 L 275.144531 502.367188 L 274.355469 515.425781 L 272.886719 541.535156 L 272.191406 554.589844 L 271.535156 567.644531 L 271.421875 569.949219 L 273.589844 571.25 L 292.582031 582.660156 L 311.597656 594.015625 L 330.65625 605.304688 L 340.1875 610.9375 L 349.734375 616.550781 L 358.6875 621.800781 L 358.761719 611.214844 L 358.898438 593.949219 L 358.960938 576.671875 L 359.027344 559.40625 L 359.035156 542.132812 L 359.035156 524.867188 L 358.996094 507.601562 L 358.847656 473.066406 L 358.578125 438.523438 L 358.195312 403.988281 L 357.992188 386.726562 L 357.453125 352.195312 L 357.144531 334.921875 L 356.917969 322.523438 L 346.417969 328.867188 " fill-opacity="1" fill-rule="nonzero"/></g></g></g><g clip-path="url(#4483a1c29d)"><g clip-path="url(#9dd1baf0d8)"><g clip-path="url(#8bcac142dc)"><path fill="#2b3484" d="M 474.128906 95.660156 C 461.359375 103.386719 448.546875 111.054688 435.804688 118.828125 L 397.5625 142.128906 L 359.417969 165.582031 L 340.375 177.363281 L 321.359375 189.183594 L 302.355469 201.039062 L 283.398438 212.964844 L 264.464844 224.929688 L 245.558594 236.941406 C 232.964844 244.964844 220.394531 253.035156 207.855469 261.148438 C 201.585938 265.214844 195.320312 269.273438 189.078125 273.382812 C 182.828125 277.484375 176.574219 281.558594 170.359375 285.71875 C 177.003906 282.285156 183.59375 278.769531 190.203125 275.285156 C 196.816406 271.808594 203.398438 268.28125 209.988281 264.753906 C 223.152344 257.699219 236.285156 250.59375 249.398438 243.441406 L 269.046875 232.691406 L 288.667969 221.890625 L 308.265625 211.050781 L 327.820312 200.144531 L 347.363281 189.207031 L 366.878906 178.222656 L 405.847656 156.152344 L 444.71875 133.929688 C 453.03125 129.183594 461.324219 124.398438 469.613281 119.601562 L 469.613281 126.128906 L 469.707031 148.558594 L 469.792969 170.984375 L 469.960938 193.410156 L 470.332031 238.261719 L 470.855469 283.109375 L 471.53125 327.957031 L 471.910156 350.382812 L 472.347656 372.804688 L 472.796875 395.230469 L 473.308594 417.652344 L 473.835938 440.074219 L 474.078125 449.015625 L 473.523438 448.71875 L 460.863281 441.890625 L 435.523438 428.285156 L 410.132812 414.753906 L 387.34375 402.699219 L 387.238281 389.003906 L 387.054688 372.027344 L 386.589844 338.066406 L 386.28125 321.082031 L 385.925781 304.101562 L 385.5 287.117188 C 385.359375 281.457031 385.199219 275.792969 385.003906 270.128906 C 384.566406 275.78125 384.167969 281.433594 383.785156 287.082031 L 382.640625 304.03125 L 381.566406 320.984375 L 380.542969 337.933594 L 378.636719 371.851562 L 377.734375 388.800781 L 376.878906 405.757812 L 376.730469 408.75 L 379.546875 410.441406 L 404.207031 425.257812 L 428.90625 440.007812 L 453.652344 454.667969 L 466.035156 461.984375 L 478.4375 469.269531 L 490.0625 476.097656 L 490.167969 462.34375 L 490.332031 439.914062 L 490.507812 395.054688 L 490.519531 372.636719 L 490.511719 350.203125 L 490.460938 327.773438 L 490.269531 282.921875 L 489.921875 238.070312 L 489.429688 193.222656 L 489.160156 170.796875 L 488.464844 125.945312 L 488.058594 103.523438 L 487.765625 87.414062 L 474.128906 95.660156 " fill-opacity="1" fill-rule="nonzero"/></g></g></g></g></g></g></g><g clip-path="url(#6792c35821)"><g mask="url(#ff208debb1)"><g transform="matrix(1, 0, 0, 1, 0, -0.000000000000089123)"><g clip-path="url(#9fe554749d)"><g clip-path="url(#06ecd0127f)"><g clip-path="url(#fe8395978e)"><g clip-path="url(#e244247cc8)"><path fill="#2b3484" d="M 164.625 159.738281 C 158.96875 145.078125 153.382812 130.378906 147.671875 115.730469 L 130.5625 71.785156 L 113.285156 27.910156 L 104.582031 5.992188 L 95.832031 -15.90625 L 87.042969 -37.792969 L 78.175781 -59.648438 L 69.261719 -81.484375 L 60.296875 -103.304688 C 54.296875 -117.839844 48.25 -132.367188 42.148438 -146.863281 C 39.085938 -154.109375 36.035156 -161.359375 32.925781 -168.585938 C 29.828125 -175.824219 26.753906 -183.058594 23.589844 -190.269531 C 25.925781 -182.75 28.355469 -175.265625 30.75 -167.769531 C 33.132812 -160.273438 35.578125 -152.796875 38.015625 -145.316406 C 42.902344 -130.367188 47.851562 -115.4375 52.847656 -100.523438 L 60.367188 -78.164062 L 67.949219 -55.832031 L 75.574219 -33.511719 L 83.273438 -11.226562 L 91.011719 11.054688 L 98.800781 33.3125 L 114.496094 77.789062 L 130.367188 122.191406 C 133.757812 131.6875 137.191406 141.164062 140.632812 150.640625 L 133.863281 149.4375 L 110.59375 145.398438 L 87.324219 141.355469 L 64.042969 137.390625 L 17.472656 129.507812 L -29.125 121.777344 L -75.75 114.207031 L -99.074219 110.464844 L -122.402344 106.777344 L -145.734375 103.109375 L -169.078125 99.503906 L -192.425781 95.917969 L -201.738281 94.519531 L -201.328125 93.996094 L -191.914062 82.132812 L -173.132812 58.367188 L -154.421875 34.539062 L -137.71875 13.132812 L -123.5 15.546875 L -105.867188 18.488281 L -70.566406 24.269531 L -52.898438 27.085938 L -35.230469 29.847656 L -17.539062 32.535156 C -11.644531 33.433594 -5.742188 34.3125 0.167969 35.15625 C -5.617188 33.660156 -11.398438 32.207031 -17.1875 30.769531 L -34.550781 26.457031 L -51.925781 22.210938 L -69.3125 18.023438 L -104.128906 9.792969 L -121.535156 5.730469 L -138.957031 1.71875 L -142.03125 1.011719 L -144.308594 3.621094 L -164.214844 26.453125 L -184.070312 49.34375 L -203.832031 72.300781 L -213.699219 83.785156 L -223.542969 95.304688 L -232.765625 106.097656 L -218.523438 108.746094 L -195.300781 113.050781 L -148.820312 121.503906 L -125.578125 125.652344 L -102.316406 129.785156 L -79.050781 133.867188 L -32.511719 141.941406 L 14.054688 149.851562 L 60.648438 157.609375 L 83.949219 161.46875 L 130.578125 169.019531 L 153.902344 172.734375 L 170.660156 175.398438 L 164.625 159.738281 " fill-opacity="1" fill-rule="nonzero"/></g></g></g></g></g></g></g></svg>